<?xml version="1.0" standalone="no"?>
<!DOCTYPE svg PUBLIC "-//W3C//DTD SVG 1.1//EN" "http://www.w3.org/Graphics/SVG/1.1/DTD/svg11.dtd" >
<!--
2013-9-30: Created.
-->
<svg>
<metadata>
Created by iconfont
</metadata>
<defs>

<font id="iconfont" horiz-adv-x="1024" >
  <font-face
    font-family="iconfont"
    font-weight="500"
    font-stretch="normal"
    units-per-em="1024"
    ascent="896"
    descent="-128"
  />
    <missing-glyph />
    
    <glyph glyph-name="dianpu" unicode="&#58888;" d="M820.441373 286.792051c-14.488992 0-26.238594-11.747555-26.238594-26.236548l0-153.751756c0-33.666774-34.70543-69.272713-67.521836-69.272713L271.245216 37.531034c-32.465412 0-54.276161 35.809577-54.276161 69.272713l0 153.751756c0 14.487969-11.748578 26.236548-26.237571 26.236548-14.491039 0-26.238594-11.747555-26.238594-26.236548l0-153.751756c0-58.548464 40.810474-121.747855 106.751303-121.747855L726.680942-14.944108c61.680804 0 119.999025 59.161425 119.999025 121.747855l0 153.751756C846.679967 275.044496 834.931389 286.792051 820.441373 286.792051zM597.419973 90.009246c7.242961 0 13.117762 5.877871 13.117762 13.116739s-5.874801 13.118785-13.117762 13.118785l-39.35738 0c-7.246031 0-13.119809-5.879917-13.119809-13.118785s5.873778-13.116739 13.119809-13.116739L597.419973 90.009246zM741.727637 142.484388 741.727637 260.555503c0 7.238868-5.874801 13.116739-13.119809 13.116739-7.242961 0-13.117762-5.877871-13.117762-13.116739l0-118.072139c0-17.564028-18.376533-25.89067-21.914102-26.238594-7.243985 0-13.117762-5.879917-13.117762-13.118785s5.873778-13.116739 13.117762-13.116739C707.976952 90.009246 741.727637 107.855706 741.727637 142.484388zM824.048527 779.875213c-4.580319 3.530406-10.205433 5.437849-15.988136 5.437849L213.657636 785.313062c-5.835915 0-11.498892-1.940189-16.104793-5.52176C139.638829 734.765829 62.045613 582.399629 62.045613 488.273878c0-84.08814 66.703191-177.778986 162.417113-177.778986 62.629409 0 118.603235 28.021194 150.933571 71.591525 33.078373-44.545542 91.089601-69.784366 143.712099-69.784366 51.783387 0 107.054201 25.662473 136.14782 70.891584 37.198204-41.47767 94.727455-64.550155 133.911896-70.761624 10.223852-1.616824 20.216437-2.436492 29.716812-2.436492 36.83186 0 68.740594 12.543687 92.26845 36.283368 28.600385 28.844955 44.74918 74.459852 44.300972 125.141138C954.828083 542.227698 883.672486 734.042351 824.048527 779.875213zM873.885586 383.213078c-17.873066-18.025539-43.23878-24.207331-76.504418-18.949584-40.60479 6.435573-103.499236 36.271088-121.247458 83.098603L676.133709 601.649042c0 14.488992-11.747555 26.237571-26.238594 26.237571-14.488992 0-26.238594-11.748578-26.238594-26.237571l0-151.34801c-0.226151-1.061169-0.411369-2.137687-0.505513-3.241834-4.40124-51.503001-56.357566-82.280981-104.042611-82.280981-49.977251 0-109.018949 34.225499-117.263727 85.183078-0.260943 1.61887-0.673335 3.179412-1.210571 4.677533L400.634098 601.649042c0 14.488992-11.748578 26.237571-26.238594 26.237571s-26.237571-11.748578-26.237571-26.237571l0-158.935826c-14.015202-46.678112-64.510246-79.743182-123.695207-79.743182-62.923098 0-109.941971 66.151629-109.941971 125.302821 0 77.233012 65.985854 204.067722 108.847034 244.565065l574.788022 0c42.877553-43.2572 104.304577-203.204052 104.824417-261.879406C903.300522 434.721195 892.422777 401.917068 873.885586 383.213078zM439.991478 627.886613c-7.246031 0-13.118785-5.873778-13.118785-13.119809l0-39.356356c0-7.245008 5.873778-13.118785 13.118785-13.118785 7.245008 0 13.118785 5.873778 13.118785 13.118785l0 39.356356C453.111287 622.011812 447.236486 627.886613 439.991478 627.886613z"  horiz-adv-x="1024" />

    
    <glyph glyph-name="icons64x6468" unicode="&#59017;" d="M820.496 711.344c-8.576 5.936-18.384 7.376-28.256 3.712-25.344-9.424-71.392-32.064-105.44-39.216-55.008-11.568-110.64-3.088-160 4.32-29.376 4.432-56.992 8.624-82.72 8.624-52.88 0-87.856-14.784-109.136-28.304-2.64 5.2-8.32 8.848-14.528 8.848-8.848 0-16.416-7.152-16.416-16l0-31.424 0-279.968 0-328c0-8.848 7.152-16 16-16s16 7.152 16 16L336 309.872c0 0.016 10.176 1.136 14.688 3.408 20.064 10.096 51.6 22.128 86.912 22.128 37.088 0 86.032-5.632 133.232-11.104 45.296-5.232 88.128-10.176 119.776-10.176 48.752 0 87.536 8.656 117.136 13.808C823.072 330.592 832 343.84 832 359.472L832 685.024C832 695.536 829.088 705.344 820.496 711.344zM800 359.472c-16-4.032-63.536-13.344-111.568-13.344-29.808 0-70.576 4.848-114.928 9.968-48.112 5.568-97.76 11.312-136.704 11.312-41.6 0-84.816-13.872-100.816-25.472L335.984 621.904c16 10.608 43.504 34.88 107.776 34.88 23.344 0 50.16-4.032 78.32-8.256 52.032-7.872 108.912-16.752 169.536-4C726.448 651.84 768 673.056 800 685.024L800 359.472z"  horiz-adv-x="1024" />

    
    <glyph glyph-name="xiaoxi" unicode="&#59135;" d="M516.009825 516.947941c-24.246217 0-43.903929-19.659759-43.903929-43.904952 0-24.24724 19.656689-43.903929 43.903929-43.903929s43.903929 19.656689 43.903929 43.903929C559.914778 497.288183 540.257066 516.947941 516.009825 516.947941L516.009825 516.947941zM340.391039 516.947941c-24.24724 0-43.905976-19.659759-43.905976-43.904952 0-24.24724 19.657712-43.903929 43.905976-43.903929 24.246217 0 43.903929 19.656689 43.903929 43.903929C384.294968 497.288183 364.637256 516.947941 340.391039 516.947941L340.391039 516.947941zM516.009825 780.377656c-193.980993 0-351.23962-137.611148-351.23962-307.334667 0-97.006358 51.482535-183.380564 131.714857-239.697197L296.485063 77.89739399999996l153.872506 93.359294c21.298072-3.514033 43.196825-5.54939 65.653279-5.54939 193.980993 0 351.241666 137.588635 351.241666 307.334667C867.250468 642.765485 709.990818 780.377656 516.009825 780.377656L516.009825 780.377656zM516.009825 209.61122799999998c-25.640983 0-50.4009 2.978844-74.208119 8.061606l-103.341646-62.127989 1.38351 101.830223c-79.236646 47.634904-131.168412 126.398782-131.168412 215.667921 0 145.479349 137.599891 263.429715 307.334667 263.429715 169.733753 0 307.334667-117.951389 307.334667-263.429715C823.344492 327.54112699999996 685.743578 209.61122799999998 516.009825 209.61122799999998L516.009825 209.61122799999998zM691.630658 516.947941c-24.246217 0-43.904952-19.659759-43.904952-43.904952 0-24.24724 19.658735-43.903929 43.904952-43.903929s43.904952 19.656689 43.904952 43.903929C735.536634 497.288183 715.876875 516.947941 691.630658 516.947941L691.630658 516.947941z"  horiz-adv-x="1024" />

    
    <glyph glyph-name="zhuye" unicode="&#58882;" d="M1123.889946 350.55297800000005a26.024932 26.024932 0 0 0-18.37371-7.489577 25.997992 25.997992 0 0 0-18.346769 7.489577L597.087121 832.175874a44.371702 44.371702 0 0 1-31.332294 12.769998c-11.827066 0-22.953667-4.526075-31.332295-12.769998L44.367127 350.55297800000005a26.267401 26.267401 0 0 0-36.74742 0 25.189764 25.189764 0 0 0 0 36.100838L497.702053 868.303653A96.502389 96.502389 0 0 0 565.754827 895.998922a96.448507 96.448507 0 0 0 68.052773-27.695269l490.082346-481.649837c10.156728-9.968142 10.156728-26.132696 0-36.100838z m-172.960731 248.17979a25.782464 25.782464 0 0 0-25.97105 25.539996V708.43621c0 11.342129-4.499134 21.983794-12.662235 30.01219a43.240183 43.240183 0 0 1-30.524066 12.446706H796.126667a25.728582 25.728582 0 0 0-25.971051 25.513055c0 14.117044 11.611538 25.539996 25.971051 25.539996h85.645197c25.405291 0 49.301891-9.725674 67.271487-27.398919a92.057137 92.057137 0 0 0 27.856915-66.113028v-84.163446a25.755523 25.755523 0 0 0-25.971051-25.539996zM151.026245 405.862694c14.359512 0 25.997992-11.422952 25.997991-25.539995v-412.788836c0-11.800125 4.66078-22.926726 13.174112-31.278413 8.486391-8.351686 19.801579-12.931643 31.817231-12.931643h199.928596v241.094328c0 14.090103 11.611538 25.539996 25.971051 25.539996h235.679202c14.359512 0 25.997992-11.449893 25.997991-25.539996v-241.094328h202.245516c11.396011 0 22.118498 4.337489 30.173834 12.25812 8.055336 7.920632 12.473648 18.454533 12.473648 29.661958V380.32269899999994c0 14.117044 11.638479 25.539996 25.997992 25.539995 14.332571 0 25.971051-11.422952 25.97105-25.539995v-415.078814c0-24.839532-9.833437-48.197313-27.72221-65.762796A94.805111 94.805111 0 0 0 911.837935-127.75618499999996h-228.243507a25.782464 25.782464 0 0 0-25.971051 25.539996v241.094328h-183.737101v-241.094328a25.755523 25.755523 0 0 0-25.97105-25.539996H222.015579a97.175912 97.175912 0 0 0-68.564651 27.910797 93.808297 93.808297 0 0 0-28.395734 67.379251V380.32269899999994c0 14.117044 11.638479 25.539996 25.971051 25.539995z"  horiz-adv-x="1131" />

    
    <glyph glyph-name="shangcheng" unicode="&#58894;" d="M962.392064 82.383872H469.712896c-15.435776 0-29.696 6.091776-40.1152 17.114112-10.43456 11.056128-15.669248 25.618432-14.780416 41.020416l28.505088 489.240576C445.100032 660.762624 471.406592 685.056 503.18336 685.056h423.30624c31.75936 0 58.133504-24.259584 60.046336-55.246848l30.534656-489.240576c0.955392-15.418368-4.228096-30.014464-14.629888-41.069568-10.35264-11.040768-24.59648-17.115136-40.04864-17.115136zM503.216128 656.367616c-16.3072 0-30.31552-12.66688-31.205376-28.269568l-28.504064-489.224192c-0.436224-7.447552 2.046976-14.42816 6.995968-19.661824 4.948992-5.252096 11.777024-8.137728 19.243008-8.137728h492.680192c7.465984 0 14.24384 2.870272 19.15904 8.085504 4.916224 5.20192 7.365632 12.197888 6.895616 19.613696l-30.534656 489.239552c-0.956416 15.619072-15.03232 28.319744-31.389696 28.319744H503.216128v0.034816zM716.05248 441.19552c-73.88672 0-133.999616 60.112896-133.999616 133.999616 0 7.918592 6.4256 14.344192 14.344192 14.344192s14.345216-6.4256 14.345216-14.344192c0-58.06592 47.244288-105.293824 105.2928-105.293824 58.05056 0 105.294848 47.244288 105.294848 105.293824 0 7.918592 6.409216 14.344192 14.345216 14.344192 7.934976 0 14.345216-6.4256 14.345216-14.344192 0.031744-73.88672-60.080128-133.999616-133.967872-133.999616z"  horiz-adv-x="1433" />

    
    <glyph glyph-name="shoucang" unicode="&#58880;" d="M327.728136 91.69872399999997l150.60509 60.966537 33.721009 13.627369 33.721009-13.627369 150.609183-60.914348-4.484128 166.562527-0.907673 32.985252 20.663622 25.711592 96.563266 120.353089L652.842749 484.425224l-30.030967 9.081843-17.825994 25.716708-92.931552 134.033669-92.871177-134.033669-17.825994-25.716708-30.033014-9.081843-155.490354-47.120181 96.566336-120.29476 20.663622-25.711592-0.907673-32.985252L327.728136 91.69872399999997M789.940197-43.129031000000055L512.054235 69.27296899999999 234.17339-43.129031000000055l8.115841 303.886125L62.389956 484.824313l282.879696 85.667102L512.054235 811.130054l166.843936-240.638639 282.711873-85.667102L781.766027 260.756071 789.940197-43.129031000000055 789.940197-43.129031000000055 789.940197-43.129031000000055z"  horiz-adv-x="1024" />

    
    <glyph glyph-name="weibox" unicode="&#58895;" d="M512-89.60000000000002C250.4448-89.60000000000002 38.4 122.44479999999999 38.4 384S250.4448 857.6 512 857.6 985.6 645.5552 985.6 384 773.5552-89.60000000000002 512-89.60000000000002z m0 25.6c247.424 0 448 200.576 448 448S759.424 832 512 832 64 631.424 64 384 264.576-64 512-64zM642.3552 395.264c-7.168 1.536-11.776 3.7632-13.9264 6.7328-2.1248 2.9696-2.5088 5.7088-1.0752 8.192l2.1504 3.7376a8.96 8.96 0 0 1 1.4336 2.2272 230.912 230.912 0 0 1 2.8672 6.3488c1.408 3.2256 2.4832 6.4768 3.2256 9.7024a98.304 98.304 0 0 1 1.792 11.9296c0.4352 4.7104 0.3328 9.1904-0.384 13.4144a59.0592 59.0592 0 0 1-4.3008 13.824 46.208 46.208 0 0 1-8.96 13.4144c-6.656 6.9632-15.36 11.4432-26.0608 13.44a93.2352 93.2352 0 0 1-32.1536 0.3584c-10.7264-1.7152-20.8384-3.968-30.3872-6.7072-9.5232-2.7136-17.3824-5.3248-23.552-7.808l-9.2928-4.48a87.296 87.296 0 0 0-11.8016-2.9952 12.9792 12.9792 0 0 0-7.168 0.384 18.7904 18.7904 0 0 0-3.9168 2.2528c-0.9472 0.7424-1.3056 2.4832-1.0752 5.2224 0.2304 2.7392 0.4608 5.0944 0.6912 7.0656 0.256 1.9968 0.8448 5.12 1.792 9.344 0.9472 4.224 1.664 7.5776 2.1504 10.0608 0 5.9648-0.3584 11.5712-1.0752 16.768a84.736 84.736 0 0 1-4.6336 17.5104 37.7088 37.7088 0 0 1-10.368 15.6672 52.7104 52.7104 0 0 1-17.152 9.6768c-6.912 2.4832-15.8464 3.2256-26.8032 2.2528-10.9568-0.9984-23.3472-3.968-37.1456-8.96a225.92 225.92 0 0 1-50.7392-26.4448c-17.152-11.6736-32.0512-23.8592-44.672-36.5312-12.6208-12.672-24.1664-24.9856-34.6624-36.9152-10.496-11.9296-18.5856-21.632-24.32-29.0816l-7.8592-11.9296c-15.7184-21.376-27.392-42.752-34.9952-64.128-7.6288-21.376-11.2128-37.5296-10.752-48.4608v-15.6672c2.8928-23.8592 9.9072-45.2352 21.0944-64.128 11.1872-18.8928 24.5248-34.176 40.0128-45.8496a229.0944 229.0944 0 0 1 54.6816-29.824c20.9664-8.2176 41.088-14.1824 60.416-17.92 19.2768-3.712 39.6544-6.3232 61.0816-7.808 35.2512-2.9952 71.8336-0.1536 109.696 8.5504 37.888 8.704 73.1136 23.7568 105.7536 45.1328 32.64 21.376 55.6288 46.976 68.9664 76.8 8.1152 17.408 12.288 33.792 12.5184 49.2288 0.256 15.4112-2.2528 27.9552-7.5008 37.632a95.0272 95.0272 0 0 1-20.3776 25.728 101.0432 101.0432 0 0 1-23.552 16.4096 78.336 78.336 0 0 1-19.6608 6.7072v-0.0512z m-207.1808-222.3872c-52.608-2.4064-97.28 7.6544-134.0416 30.1568s-55.1424 50.9696-55.1424 85.4528c0 33.9712 18.2528 63.2832 54.784 87.936 36.5312 24.6528 81.3312 38.1696 134.4256 40.576 53.0944 2.4064 97.8944-6.2208 134.4-25.856 36.5568-19.6352 54.8096-46.4384 54.8096-80.384 0-34.4832-18.6112-65.4848-55.8848-93.0048-37.2736-27.52-81.7152-42.496-133.3248-44.8512v-0.0256z m-28.928 198.8608a119.7568 119.7568 0 0 1-37.9648-9.984c-11.1872-5.1968-19.968-11.136-26.2912-17.792-6.3232-6.656-11.6736-13.824-16.0768-21.4528-4.3776-7.6544-7.424-15.1808-9.1392-22.5792-1.6896-7.424-2.7904-14.208-3.2768-20.352-0.512-6.144-0.768-10.9824-0.7424-14.4384l0.7424-5.9136v-2.9696c0-1.4848 0.4864-4.4544 1.4592-8.8832 0.9984-4.4288 2.304-8.5248 4.0192-12.2368 1.7152-3.6864 4.5056-7.7824 8.3968-12.2112 3.8912-4.4288 8.5248-8.1408 13.8752-11.1104 32.1536-15.7952 62.08-20.608 89.856-14.4384 27.7248 6.1952 50.1248 20.3776 67.1744 42.5728 6.8096 8.3968 11.3152 18.7648 13.4912 31.104 2.2016 12.3648 1.6896 24.832-1.4592 37.376a95.6928 95.6928 0 0 1-16.4352 34.432c-7.7824 10.3936-19.3536 18.432-34.688 24.064-15.3088 5.6832-32.9728 7.296-52.9408 4.8128z m-37.504-154.1632a27.392 27.392 0 0 0-14.7968 1.2032 70.4512 70.4512 0 0 0-6.1952 2.7648 14.5152 14.5152 0 0 0-5.1456 4.352 80.4608 80.4608 0 0 0-3.7888 5.5808 26.112 26.112 0 0 0-3.7888 13.9008c0 5.8112 1.3824 11.52 4.1472 17.0752 2.7648 5.5552 6.5536 10.3168 11.3664 14.3104a28.928 28.928 0 0 0 16.1536 6.7584c4.1216 0.512 8.1408 0.384 12.032-0.4096 3.9168-0.7936 7.2448-2.1248 9.984-3.968 2.7648-1.8432 5.1712-3.968 7.2448-6.3488 2.048-2.3808 3.5584-5.1712 4.4544-8.3456 0.9216-3.1744 1.3824-6.6048 1.408-10.3168 0-5.8112-1.5104-11.3664-4.48-16.64a42.496 42.496 0 0 0-12.032-13.5168 32.256 32.256 0 0 0-16.5376-6.3488v-0.0512z m71.936 68.8128a13.6192 13.6192 0 0 0-8.6016-2.56c-2.9696 0.2048-5.0432 1.408-6.2208 3.6608l-1.2032 2.2528a4.8384 4.8384 0 0 0-0.5888 2.2528v2.2272c0 1.1264 0.2048 2.048 0.5888 2.816l1.2032 2.2272a3.712 3.712 0 0 0 1.792 1.6896l1.7664 2.2528a12.8768 12.8768 0 0 0 9.1648 2.816 7.424 7.424 0 0 0 6.2208-4.5056 6.656 6.656 0 0 0 1.4848-5.0432 13.312 13.312 0 0 0-1.792-5.3248 21.5296 21.5296 0 0 0-3.84-4.7872z m254.592 153.2672a15.0272 15.0272 0 0 1 7.8848 2.1504 17.8688 17.8688 0 0 1 8.6016 12.1344c0.4864 0.4608 0.7168 1.1776 0.7168 2.1504 5.7344 54.2976-13.3632 85.248-57.3184 92.8768a101.4528 101.4528 0 0 1-35.8144 0.7168 14.6432 14.6432 0 0 1-8.6016-2.4832 22.4768 22.4768 0 0 1-6.0928-6.4256 14.7968 14.7968 0 0 1-2.4832-8.192c0-4.7872 1.664-8.832 5.0176-12.16 3.328-3.328 7.3984-4.992 12.16-5.0176 37.248 8.6016 57.3184-3.328 60.16-35.712 0.9728-8.0896 0.512-15.7184-1.4336-22.8608 0-4.7872 1.664-8.832 5.0176-12.16 3.328-3.328 7.424-4.992 12.1856-4.992v-0.0256z m8.9088 197.248c-20.352 4.9408-47.6416 3.968-81.8944-2.9696-0.4608 0-0.9216-0.256-1.3824-0.7424l-0.6912-1.4848-0.6912-0.7424a22.656 22.656 0 0 1-12.4928-9.2672c-3.2512-4.7104-4.864-9.7792-4.864-15.2064 0-7.424 2.304-13.5936 6.9376-18.5344 4.6336-4.9408 10.1888-7.424 16.64-7.424h2.0992c0.4608 0 1.5104 0.256 3.1232 0.7168a34.048 34.048 0 0 0 5.1968 1.1264c1.8432 0.256 3.8144 0.768 5.9136 1.4848 2.0992 0.768 3.9424 1.4848 5.5552 2.2272 1.5872 0.768 4.7104 1.1264 9.3696 1.1264 4.6336 0 10.3168-0.384 16.9984-1.1264 6.7072-0.7424 14.08-2.56 22.2208-5.5296 8.1152-2.9696 16.2048-6.6816 24.2944-11.136 8.064-4.48 16.1792-10.6496 24.2688-18.5344 8.1152-7.9104 15.1808-17.0496 21.1712-27.4432 12.032-29.184 14.336-57.344 6.9376-84.5568 0-0.4864-0.1024-0.9728-0.3328-1.4848a25.1904 25.1904 0 0 1-1.0496-3.712 167.2704 167.2704 0 0 0-1.408-5.5552 72.3968 72.3968 0 0 1-1.408-6.656 43.008 43.008 0 0 1-0.6656-7.0656c0-4.4288 1.152-8.1408 3.456-11.1104 2.304-2.9952 5.1968-5.0944 8.6784-6.3232 3.4816-1.2288 7.5264-1.8432 12.16-1.8432 12.928 0 20.5568 8.3968 22.8864 25.216a233.472 233.472 0 0 1 9.3696 55.2448c0.6912 17.5616-0.4608 33.024-3.4816 46.336a155.3408 155.3408 0 0 1-13.5168 37.4784 125.3888 125.3888 0 0 1-20.8128 29.6448 171.5456 171.5456 0 0 1-26.368 22.272 171.3664 171.3664 0 0 1-28.1344 15.9488 181.0176 181.0176 0 0 1-28.1088 9.6256h0.0256z"  horiz-adv-x="1024" />

    
    <glyph glyph-name="category" unicode="&#58884;" d="M234.666667 768l-128 0c-11.776 0-21.333333-9.536-21.333333-21.333333l0-128c0-11.797333 9.557333-21.333333 21.333333-21.333333l128 0c11.776 0 21.333333 9.536 21.333333 21.333333l0 128C256 758.4639999999999 246.442667 768 234.666667 768zM221.866667 652.8c0-11.797333-9.557333-21.333333-21.333333-21.333333l-59.733333 0c-11.776 0-21.333333 9.536-21.333333 21.333333L119.466667 712.533333c0 11.797333 9.557333 21.333333 21.333333 21.333333l59.733333 0c11.776 0 21.333333-9.536 21.333333-21.333333L221.866667 652.8zM234.666667 469.333333l-128 0c-11.776 0-21.333333-9.536-21.333333-21.333333l0-128c0-11.797333 9.557333-21.333333 21.333333-21.333333l128 0c11.776 0 21.333333 9.536 21.333333 21.333333l0 128C256 459.797333 246.442667 469.333333 234.666667 469.333333zM221.866667 354.133333c0-11.797333-9.557333-21.333333-21.333333-21.333333l-59.733333 0c-11.776 0-21.333333 9.536-21.333333 21.333333L119.466667 413.866667c0 11.797333 9.557333 21.333333 21.333333 21.333333l59.733333 0c11.776 0 21.333333-9.536 21.333333-21.333333L221.866667 354.133333zM234.666667 170.66666699999996l-128 0c-11.776 0-21.333333-9.536-21.333333-21.333333l0-128c0-11.797333 9.557333-21.333333 21.333333-21.333333l128 0c11.776 0 21.333333 9.536 21.333333 21.333333l0 128C256 161.13066700000002 246.442667 170.66666699999996 234.666667 170.66666699999996zM221.866667 55.46666700000003c0-11.797333-9.557333-21.333333-21.333333-21.333333l-59.733333 0c-11.776 0-21.333333 9.536-21.333333 21.333333L119.466667 115.20000000000005c0 11.797333 9.557333 21.333333 21.333333 21.333333l59.733333 0c11.776 0 21.333333-9.536 21.333333-21.333333L221.866667 55.46666700000003zM938.666667 682.666667c0-11.797333-9.557333-21.333333-21.333333-21.333333l-554.666667 0c-11.776 0-21.333333 9.536-21.333333 21.333333l0 0c0 11.797333 9.557333 21.333333 21.333333 21.333333l554.666667 0C929.109333 704 938.666667 694.4639999999999 938.666667 682.666667L938.666667 682.666667zM938.666667 384c0-11.797333-9.557333-21.333333-21.333333-21.333333l-554.666667 0c-11.776 0-21.333333 9.536-21.333333 21.333333l0 0c0 11.797333 9.557333 21.333333 21.333333 21.333333l554.666667 0C929.109333 405.333333 938.666667 395.797333 938.666667 384L938.666667 384zM938.666667 85.33333300000004c0-11.797333-9.557333-21.333333-21.333333-21.333333l-554.666667 0c-11.776 0-21.333333 9.536-21.333333 21.333333l0 0c0 11.797333 9.557333 21.333333 21.333333 21.333333l554.666667 0C929.109333 106.66666699999996 938.666667 97.13066700000002 938.666667 85.33333300000004L938.666667 85.33333300000004z"  horiz-adv-x="1024" />

    
    <glyph glyph-name="to-right" unicode="&#58908;" d="M492.675886-8.817574000000036L885.696074 384.202615 492.675886 777.222803c-12.258185 12.258185-12.432147 32.892131 0.187265 45.51052 12.707416 12.707416 32.995485 12.703323 45.511543 0.187265l411.660734-411.660734c7.120165-7.120165 10.163477-17.065677 8.990768-26.624381 1.500167-9.755178-1.5104-20.010753-8.990768-27.491121L538.374694-54.51535899999999c-12.258185-12.258185-32.892131-12.432147-45.511543 0.187265-12.707416 12.707416-12.703323 32.995485-0.187265 45.51052z"  horiz-adv-x="1024" />

    
    <glyph glyph-name="wode1" unicode="&#58909;" d="M927.744-70.656H135.168c-16.384 0-32.768 8.192-43.008 20.48-10.24 14.336-14.336 30.72-10.24 47.104 40.96 208.896 210.944 364.544 415.744 380.928 8.192 2.048 14.336 2.048 24.576 2.048v-20.48c-8.192 0-14.336 0-22.528-2.048-196.608-14.336-360.448-163.84-399.36-364.544-2.048-10.24 0-22.528 8.192-30.72 6.144-8.192 16.384-12.288 26.624-12.288h792.576c10.24 0 20.48 4.096 26.624 12.288 6.144 8.192 10.24 18.432 8.192 30.72-24.576 131.072-104.448 243.712-217.088 307.2-12.288 8.192-26.624 14.336-38.912 20.48l8.192 18.432c14.336-6.144 28.672-14.336 40.96-20.48 118.784-67.584 200.704-184.32 227.328-321.536 4.096-16.384 0-32.768-12.288-47.104-10.24-12.288-26.624-20.48-43.008-20.48z m-399.36 430.08h-4.096v20.48h6.144l-2.048-20.48zM536.576 359.424c-129.024 0-235.52 106.496-235.52 235.52s106.496 235.52 235.52 235.52 235.52-106.496 235.52-235.52-106.496-235.52-235.52-235.52z m0 450.56c-118.784 0-215.04-96.256-215.04-215.04s96.256-215.04 215.04-215.04 215.04 96.256 215.04 215.04-96.256 215.04-215.04 215.04z"  horiz-adv-x="1024" />

    
    <glyph glyph-name="wei-xin" unicode="&#58910;" d="M675.1 527.9c4.2 0 8.4-0.1 12.5-0.3-21.9 117.8-144.9 208.1-293.3 208.1-163.9 0-296.8-110-296.8-245.6 0-79.5 45.7-150.3 116.5-195.1 0.9-0.6 2.7-1.7 2.7-1.7L188 204.4l107.3 54.1s3.4-1 5-1.4c29.5-8.1 61.1-12.5 93.9-12.5 6.7 0 13.3 0.3 19.9 0.6-6.1 18.7-9.4 38.3-9.4 58.6 0 123.7 121.1 224.1 270.4 224.1z m-177.6 86.7c23 0 41.6-17.9 41.6-39.9s-18.6-39.9-41.6-39.9-41.7 17.9-41.7 39.9 18.6 39.9 41.7 39.9z m-206.6-79.9c-23 0-41.7 17.9-41.7 39.9 0 22.1 18.6 39.9 41.7 39.9 23 0 41.7-17.9 41.7-39.9s-18.6-39.9-41.7-39.9zM928 302.2c0 114.6-112.2 207.5-250.7 207.5s-250.8-92.9-250.8-207.5 112.3-207.5 250.8-207.5c27.7 0 54.4 3.7 79.3 10.6 1.4 0.4 4.3 1.2 4.3 1.2l90.6-45.7-24.2 75.1s1.5 1 2.3 1.4c59.8 38 98.4 97.7 98.4 164.9z m-338 37.7c-19.4 0-35.2 15.1-35.2 33.8 0 18.6 15.8 33.7 35.2 33.7 19.5 0 35.2-15.1 35.2-33.7 0.1-18.6-15.7-33.8-35.2-33.8z m174.5 0c-19.4 0-35.2 15.1-35.2 33.8 0 18.6 15.7 33.7 35.2 33.7 19.5 0 35.2-15.1 35.2-33.7s-15.7-33.8-35.2-33.8z"  horiz-adv-x="1024" />

    
    <glyph glyph-name="bilu" unicode="&#58965;" d="M102.4 387.072V738.304c0 31.744 8.192 39.936 38.912 39.936 139.264 0 277.504 0 416.768-1.024 12.288 0 27.648-6.144 37.888-14.336 33.792-29.696 66.56-60.416 98.304-92.16 7.168-7.168 13.312-20.48 13.312-30.72-1.024-205.824-1.024-409.6-1.024-613.376 0-24.576-9.216-32.768-35.84-32.768H145.408c-35.84 0-41.984 7.168-41.984 43.008-1.024 115.712-1.024 233.472-1.024 350.208z m564.224-357.376V627.712c-29.696 0-56.32 1.024-83.968 0-19.456-1.024-35.84 17.408-35.84 36.864 1.024 25.6 0 40.96 0 67.584H141.312v-701.44c163.84-1.024 362.496-1.024 525.312-1.024zM755.712 456.704V737.28c0 31.744 4.096 35.84 33.792 35.84h99.328c21.504 0 30.72-7.168 30.72-30.72-1.024-190.464 2.048-377.856 1.024-569.344 0-10.24-5.12-28.672-8.192-37.888-18.432-53.248-28.672-75.776-49.152-119.808-4.096-8.192-15.36-26.624-23.552-26.624-11.264 0-16.384 12.288-20.48 20.48-21.504 45.056-39.936 87.04-59.392 133.12-4.096 9.216-5.12 21.504-5.12 31.744 1.024 96.256 1.024 189.44 1.024 282.624zM860.16 736.256V189.44c0-14.336-2.048-24.576-12.288-28.672-11.264 3.072-12.288 14.336-13.312 29.696v34.816 481.28 29.696h-41.984v-31.744c0-168.96 1.024-338.944-1.024-507.904 0-31.744 11.264-57.344 23.552-83.968 24.576-41.984 45.056-23.552 60.416 7.168 10.24 24.576 17.408 50.176 17.408 75.776 2.048 175.104 1.024 339.968 1.024 515.072v25.6H860.16zM387.072 343.04c-58.368 0-115.712-1.024-174.08 1.024-8.192 0-23.552 4.096-23.552 13.312s16.384 13.312 24.576 13.312c114.688 1.024 230.4 1.024 345.088 0 7.168 0 22.528-3.072 22.528-12.288 0-10.24-15.36-14.336-22.528-14.336-58.368-1.024-114.688-1.024-172.032-1.024zM386.048 257.024c57.344 0 114.688 1.024 171.008-1.024 8.192 0 22.528-2.048 22.528-12.288 0-11.264-14.336-14.336-21.504-14.336-115.712-1.024-231.424-1.024-347.136 0-7.168 0-21.504 5.12-21.504 13.312s15.36 13.312 23.552 13.312c57.344 1.024 115.712 1.024 173.056 1.024zM387.072 141.312c56.32 0 112.64 0 168.96-1.024 8.192 0 24.576-3.072 24.576-11.264 0-9.216-15.36-13.312-23.552-13.312-114.688-1.024-229.376-1.024-344.064 0-8.192 0-23.552 3.072-23.552 13.312 0 9.216 16.384 11.264 24.576 11.264 57.344 2.048 115.712 1.024 173.056 1.024zM285.696 480.256c25.6 0 51.2 1.024 76.8-1.024 6.144 0 18.432-5.12 18.432-12.288 0-8.192-11.264-12.288-16.384-12.288-52.224-1.024-105.472-1.024-157.696 0-5.12 0-16.384 5.12-16.384 13.312 0 7.168 11.264 11.264 17.408 11.264 24.576 2.048 51.2 1.024 77.824 1.024z"  horiz-adv-x="1024" />

    
    <glyph glyph-name="xiangqing-fenxiangpengyouquan" unicode="&#59051;" d="M824.9 831H199.1C123.1 831 65 772.9 65 696.9v-625.8c0-76 58.1-134.1 134.1-134.1h625.8c76 0 134.1 58.1 134.1 134.1V696.9c0 76-58.1 134.1-134.1 134.1zM671.1 664.9c27.9-14.8 54.2-34 77.7-57.5C781 575.2 805 538 821 498.3l-150-150V664.9z m-159.2 45.9c45.5 0 88.8-9.3 128.2-26.1v-212L416.2 696.6c30.3 9.2 62.4 14.2 95.7 14.2z m-225.6-92.5c33.8 30.5 72.1 52.7 112.5 66.7l142.3-157.2L225 543.5c16.2 27.2 36.7 52.5 61.3 74.8z m-90.8-313.9c-7.7 30.6-11.2 63-9.5 96.2 2.3 45.5 13.7 88.3 32.4 126.7l211.8-10.5-234.7-212.4z m155.3-193.5c-27.2 16.2-52.5 36.7-74.8 61.3-30.5 33.8-52.7 72.1-66.7 112.5L366.6 427l-15.8-316.1z m150.1-53.3c-45.4 2.3-88.2 13.7-126.7 32.4l10.6 211.8L597.2 67c-30.7-7.7-63-11.1-96.3-9.4z m228.4 90.1c-33.8-30.5-72.1-52.7-112.5-66.7L474.5 238.29999999999995l316.2-15.7c-16.3-27.3-36.7-52.5-61.4-74.9z m80.6 96.2l-212 4.1L826 467.5c8.6-30.4 13-62.6 12.4-95.9-0.8-45.5-11-88.6-28.5-127.7z"  horiz-adv-x="1024" />

    
    <glyph glyph-name="qicheqianlian-" unicode="&#58885;" d="M908.629333 152.23466699999994H257.877333c-19.285333 0-37.376 7.509333-50.858666 21.162666-13.482667 13.653333-20.992 31.573333-20.821334 50.858667l2.389334 479.232c0 19.114667-6.656 31.914667-39.765334 37.205333h-0.170666l-95.573334 16.384c-9.216 1.536-15.530667 10.410667-13.994666 19.626667 1.536 9.216 10.410667 15.530667 19.626666 13.994667l95.402667-16.384c45.397333-7.168 68.437333-31.061333 68.437333-70.997334L220.16 223.914667c0-10.069333 3.754667-19.456 10.922667-26.453334 7.168-7.168 16.554667-11.093333 26.624-11.093333h650.752c9.386667 0 17.066667-7.68 17.066666-17.066667s-7.509333-17.066667-16.896-17.066666zM859.989333 250.19733299999996l-602.624 1.877334c-18.944 0.170667-36.693333 7.509333-50.005333 20.992-13.312 13.482667-20.48 31.232-20.48 50.176l1.877333 353.962666L870.570667 626.346667c30.890667-1.194667 55.125333-26.282667 55.125333-57.173334V315.733333c0-36.181333-29.525333-65.536-65.706667-65.536zM257.706667 286.20799999999997l602.453333-1.877333c17.408 0 31.573333 14.165333 31.573333 31.402666V569.173333c0 12.458667-9.898667 22.698667-22.357333 23.04h-0.682667l-645.632 48.128-1.536-317.44c0-9.728 3.754667-18.944 10.581334-25.941333 6.485333-6.826667 15.701333-10.752 25.6-10.752zM324.096 95.91466700000001m-63.658667 0a63.658667 63.658667 0 1 1 127.317334 0 63.658667 63.658667 0 1 1-127.317334 0ZM324.096 15.189333000000033c-44.544 0-80.725333 36.181333-80.725333 80.725334s36.181333 80.725333 80.725333 80.725333c44.544 0 80.725333-36.181333 80.725333-80.725333s-36.181333-80.725333-80.725333-80.725334z m0 127.317334c-25.770667 0-46.592-20.821333-46.592-46.592s20.821333-46.592 46.592-46.592 46.592 20.821333 46.592 46.592-20.821333 46.592-46.592 46.592zM812.714667 95.91466700000001m-63.658667 0a63.658667 63.658667 0 1 1 127.317333 0 63.658667 63.658667 0 1 1-127.317333 0ZM812.714667 15.189333000000033c-44.544 0-80.725333 36.181333-80.725334 80.725334s36.181333 80.725333 80.725334 80.725333 80.725333-36.181333 80.725333-80.725333-36.181333-80.725333-80.725333-80.725334z m0 127.317334c-25.770667 0-46.592-20.821333-46.592-46.592s20.821333-46.592 46.592-46.592 46.592 20.821333 46.592 46.592-20.821333 46.592-46.592 46.592zM710.314667 478.037333H362.496c-9.386667 0-17.066667 7.68-17.066667 17.066667s7.68 17.066667 17.066667 17.066667h347.818667c9.386667 0 17.066667-7.68 17.066666-17.066667s-7.68-17.066667-17.066666-17.066667zM710.314667 379.904H362.496c-9.386667 0-17.066667 7.68-17.066667 17.066667s7.68 17.066667 17.066667 17.066666h347.818667c9.386667 0 17.066667-7.68 17.066666-17.066666s-7.68-17.066667-17.066666-17.066667z"  horiz-adv-x="1024" />

    
    <glyph glyph-name="zhuye1" unicode="&#58887;" d="M738.463-21.838H575.957a29.057 29.057 0 0 0-29.127 29.127V259.724c0 0.122-0.242 0.485-0.485 0.485h-76.337c-0.122 0-0.485-0.242-0.485-0.485v-252.435a29.057 29.057 0 0 0-29.127-29.127H278.012c-48.667 0-88.231 39.564-88.231 88.231V322.954h-17.718c-27.428 0-52.065 16.262-62.988 41.506-10.801 25.122-5.703 54.25 13.229 74.153l296.975 313.602c24.03 25.364 57.769 39.929 92.721 39.929s68.691-14.563 92.721-39.929l296.854-313.602c18.811-19.903 24.03-49.03 13.229-74.153s-35.559-41.506-62.988-41.506h-25.122v-256.561c0-48.667-39.564-88.231-88.231-88.231z m-133.378 58.255h133.378c16.506 0 29.977 13.471 29.977 29.977V352.083a29.057 29.057 0 0 0 29.127 29.127h54.25c3.155 0 7.524 1.578 9.467 6.19s0.122 8.86-1.942 11.165L562.245 712.167c-13.229 13.957-31.069 21.724-50.366 21.724s-37.137-7.646-50.366-21.724L164.538 398.565c-2.185-2.306-4.005-6.554-1.942-11.165 1.942-4.611 6.311-6.19 9.467-6.19h46.846a29.057 29.057 0 0 0 29.127-29.127v-285.689c0-16.506 13.471-29.977 29.977-29.977h133.378V259.725c0 32.404 26.336 58.74 58.74 58.74h76.337c32.404 0 58.74-26.336 58.74-58.74v-223.308z"  horiz-adv-x="1024" />

    
    <glyph glyph-name="sousuo-" unicode="&#58920;" d="M718.848 182.272l-71.68 71.68c67.584 81.92 63.488 204.8-13.312 281.6-81.92 81.92-215.04 81.92-296.96 0s-81.92-215.04 0-296.96c76.8-76.8 199.68-81.92 281.6-13.312l71.68-71.68c8.192-8.192 20.48-8.192 28.672 0 8.192 7.168 8.192 20.48 0 28.672zM358.4 260.096c-69.632 69.632-69.632 183.296 0 252.928 69.632 69.632 183.296 69.632 252.928 0s69.632-183.296 0-252.928c-69.632-69.632-183.296-69.632-252.928 0z"  horiz-adv-x="1024" />

    
    <glyph glyph-name="noun__cc" unicode="&#58886;" d="M512 128C335.552 128 192 271.552 192 448s143.552 320 320 320 320-143.552 320-320c0-22.6816-2.3936-45.3376-7.104-67.3408l-25.024 5.3504A297.216 297.216 0 0 1 806.4 448c0 162.3424-132.0576 294.4-294.4 294.4S217.6 610.3424 217.6 448s132.0576-294.4 294.4-294.4a293.7344 293.7344 0 0 1 261.0816 158.2336l22.6944-11.8528A319.2704 319.2704 0 0 0 512 128zM808.6528 327.7696l-23.7312 9.6512c3.1872 7.8336 6.08 15.9488 8.576 24.1024l24.4736-7.5008a325.696 325.696 0 0 0-9.3184-26.2528zM512 192c-141.1584 0-256 114.8416-256 256 0 13.5808 1.0624 27.1744 3.1744 40.4096l25.28-4.0192A232.448 232.448 0 0 1 281.6 448c0-127.04 103.36-230.4 230.4-230.4s230.4 103.36 230.4 230.4-103.36 230.4-230.4 230.4a230.1312 230.1312 0 0 1-203.5456-122.368l-22.6048 12.0192A255.6672 255.6672 0 0 0 512 704c141.1584 0 256-114.8416 256-256s-114.8416-256-256-256zM289.6256 508.5312l-24.704 6.6944c2.3808 8.768 5.2736 17.5232 8.6144 26.048l23.8208-9.344a229.5168 229.5168 0 0 1-7.7312-23.3984zM512 409.6c-21.1712 0-38.4 17.2288-38.4 38.4s17.2288 38.4 38.4 38.4 38.4-17.2288 38.4-38.4-17.2288-38.4-38.4-38.4z m0 51.2a12.8 12.8 0 1 1 0-25.6 12.8 12.8 0 0 1 0 25.6zM805.6448 652.8a12.7488 12.7488 0 0 0-9.0496 3.7504l-127.2448 127.2448a12.8 12.8 0 0 0 0 18.0992C688.768 821.312 714.5728 832 742.0288 832s53.2608-10.688 72.6784-30.1056c40.0768-40.0768 40.0768-105.28 0-145.344a12.8 12.8 0 0 0-9.0624-3.7504zM697.2544 792.1152l107.648-107.6608a77.312 77.312 0 0 1-8.2944 99.3536A76.736 76.736 0 0 1 742.0288 806.4a76.5696 76.5696 0 0 1-44.7744-14.2848zM733.3376 738.6496l18.112-18.0992-38.4-38.4-18.112 18.0992zM805.6448 780.0448a12.7872 12.7872 0 0 0-9.0496 21.8496l19.9552 19.9552a12.7872 12.7872 0 1 0 18.0992-18.0992l-19.9552-19.9552a12.7616 12.7616 0 0 0-9.0496-3.7504zM218.3552 652.8a12.7488 12.7488 0 0 0-9.0496 3.7504c-40.0768 40.0768-40.0768 105.28 0 145.344C228.7104 821.312 254.528 832 281.9712 832s53.2608-10.688 72.6784-30.1056a12.7488 12.7488 0 0 0 0-18.0992l-127.2448-127.2448a12.8 12.8 0 0 0-9.0496-3.7504z m63.616 153.6c-20.608 0-40-8.0256-54.5792-22.6048a77.312 77.312 0 0 1-8.2944-99.3536l107.648 107.6608A76.4928 76.4928 0 0 1 281.9712 806.4zM290.6496 738.6496l38.4-38.4-18.0992-18.0992-38.4 38.4zM218.3552 780.0448a12.7616 12.7616 0 0 0-9.0496 3.7504L189.3504 803.7504a12.7872 12.7872 0 1 0 18.0992 18.0992l19.9552-19.9552a12.7872 12.7872 0 0 0-9.0496-21.8496zM499.2 806.4h25.6v-51.2h-25.6zM563.2 793.6h-102.4a12.8 12.8 0 0 0-12.8 12.8V857.6a12.8 12.8 0 0 0 12.8 12.8h102.4a12.8 12.8 0 0 0 12.8-12.8v-51.2a12.8 12.8 0 0 0-12.8-12.8z m-89.6 25.6h76.8V844.8h-76.8v-25.6zM320 102.4a12.8 12.8 0 0 0-11.8912 17.5488l25.6 64a12.8 12.8 0 0 0 23.7824-9.4976l-25.6-64A12.8 12.8 0 0 0 320 102.4zM704 102.4a12.8 12.8 0 0 0-11.8912 8.0512l-25.6 64a12.8 12.8 0 0 0 23.7824 9.4976l25.6-64A12.8 12.8 0 0 0 704 102.4zM512 460.8a12.8 12.8 0 0 0-12.8 12.8v89.6a12.8 12.8 0 1 0 25.6 0v-89.6a12.8 12.8 0 0 0-12.8-12.8zM678.4 435.2H537.6a12.8 12.8 0 1 0 0 25.6h140.8a12.8 12.8 0 1 0 0-25.6zM512 652.8a12.8 12.8 0 0 0-12.8 12.8v25.6a12.8 12.8 0 1 0 25.6 0v-25.6a12.8 12.8 0 0 0-12.8-12.8zM665.8688 589.0688a12.7872 12.7872 0 0 0-9.0496 21.8496l18.0992 18.0992a12.7872 12.7872 0 1 0 18.0992-18.0992l-18.0992-18.0992a12.7488 12.7488 0 0 0-9.0496-3.7504zM755.2 435.2h-25.6a12.8 12.8 0 1 0 0 25.6h25.6a12.8 12.8 0 1 0 0-25.6zM683.968 263.232a12.7616 12.7616 0 0 0-9.0496 3.7504l-18.0992 18.0992a12.7872 12.7872 0 1 0 18.0992 18.0992l18.0992-18.0992a12.7872 12.7872 0 0 0-9.0496-21.8496zM512 192a12.8 12.8 0 0 0-12.8 12.8v25.6a12.8 12.8 0 1 0 25.6 0v-25.6a12.8 12.8 0 0 0-12.8-12.8zM340.032 263.232a12.7872 12.7872 0 0 0-9.0496 21.8496l18.0992 18.0992a12.7872 12.7872 0 1 0 18.0992-18.0992l-18.0992-18.0992a12.7616 12.7616 0 0 0-9.0496-3.7504zM294.4 435.2h-25.6a12.8 12.8 0 1 0 0 25.6h25.6a12.8 12.8 0 1 0 0-25.6zM358.1312 589.0688a12.7616 12.7616 0 0 0-9.0496 3.7504l-18.0992 18.0992a12.7872 12.7872 0 1 0 18.0992 18.0992l18.0992-18.0992a12.7872 12.7872 0 0 0-9.0496-21.8496z"  horiz-adv-x="1024" />

    
    <glyph glyph-name="fenxiang" unicode="&#59201;" d="M918.4 617.6c0 3.2-3.2 6.4-6.4 6.4l-166.4 166.4c-9.6 9.6-25.6 9.6-32 0s-9.6-22.4 0-32l124.8-124.8h-172.8c-105.6 0-198.4-57.6-246.4-150.4l-121.6-246.4c-6.4-12.8 0-25.6 9.6-32 3.2-3.2 6.4-3.2 9.6-3.2 9.6 0 16 6.4 22.4 12.8l121.6 246.4c38.4 76.8 115.2 124.8 201.6 124.8h172.8l-124.8-124.8c-9.6-9.6-9.6-25.6 0-35.2 3.2-3.2 9.6-6.4 16-6.4s12.8 3.2 16 6.4l166.4 166.4c3.2 3.2 3.2 6.4 6.4 6.4 6.4 6.4 6.4 12.8 3.2 19.2zM864 409.6c-12.8 0-25.6-9.6-25.6-25.6v-256c0-57.6-48-105.6-105.6-105.6H256c-57.6 0-105.6 48-105.6 105.6V608c0 57.6 48 105.6 105.6 105.6h256c12.8 0 25.6 9.6 25.6 25.6s-12.8 22.4-25.6 22.4H256C172.8 761.6 102.4 691.2 102.4 608v-480c0-83.2 67.2-153.6 153.6-153.6h480c83.2 0 153.6 67.2 153.6 153.6v256c0 12.8-12.8 25.6-25.6 25.6z"  horiz-adv-x="1024" />

    
    <glyph glyph-name="biaoqian" unicode="&#58901;" d="M294.33705 578.599526c-12.108549 0-22.481572-4.012775-31.099007-12.690401s-12.680369-19.060681-12.680369-31.099007 4.012775-22.491604 12.680369-31.099006 19.060681-12.690401 31.099007-12.690402 22.481572 4.012775 31.099006 12.690402 13.262222 19.060681 12.690401 31.099006c0 12.098517-4.012775 22.481572-12.690401 31.099007s-19.00049 12.690401-31.099006 12.690401zM767.994984 896H255.994984C115.19674 896 0 780.793228 0 640.0050160000001v-512c0-140.798244 115.19674-256.005016 255.994984-256.005016h512c140.798244 0 256.005016 115.206772 256.005016 256.005016V640.0050160000001C1024 780.793228 908.793228 896 767.994984 896zM493.832161 122.53760999999997c-12.108549 0-22.491604 4.012775-31.099007 12.690401l-247.387581 247.32739c-9.219351 8.657562-16.141388 20.184258-22.491604 35.171973-6.330153 14.415894-9.219351 28.259968-9.219351 40.358485V601.66295c0 12.098517 4.614691 22.481572 13.262222 31.099007s19.060681 13.25219 31.099006 13.25219H372.184885c12.108549 0 25.37077-2.879166 40.368517-9.229383 14.405862-6.330153 26.504379-13.834042 35.111782-22.481572l247.357486-246.785665c8.64753-9.229383 12.680369-19.602406 12.680369-31.710955s-4.614691-22.481572-12.690401-31.099007l-169.539746-169.539746C516.313733 126.550385 505.94071 122.53760999999997 493.832161 122.53760999999997zM827.634853 304.727629L658.095107 134.636127c-9.229383-8.657562-19.602406-12.690401-31.720986-12.690401-8.02555 0-14.977683 1.153673-20.174227 4.614691a126.061328 126.061328 0 0 0-18.448733 15.569567l162.086016 162.597645c8.637498 8.64753 12.680369 19.060681 12.680369 31.099007s-4.012775 22.481572-12.680369 31.710954l-247.357486 246.785666c-8.64753 9.229383-20.174227 16.141388-35.171973 22.481572-14.415894 6.350217-28.249936 9.229383-40.358485 9.229382h77.837804c12.108549 0 25.37077-2.879166 40.358485-9.229382 14.415894-6.340185 26.524443-13.834042 35.161941-22.481572L827.634853 367.567686c8.64753-9.229383 12.690401-19.602406 12.690401-31.710955s-4.002743-22.481572-12.690401-31.129102z"  horiz-adv-x="1024" />

    
    <glyph glyph-name="zhuangxiugongsi" unicode="&#58900;" d="M442.9 437.1l108 21.5 21.2-21.5-80.1-81 211.6-202.3-67.5-68.2-200.2 213.8-80.1-81-64.6 65.3zM506.5 831.6L128.3 577.1h767.6L506.5 831.6zM785 489.8v-449.4h95.3V489.8h29.5v74H114.5v-74H144v-449.5h95.2V489.9l545.8-0.1zM114.5-63.60000000000002h795.3v90.4H114.5v-90.4z"  horiz-adv-x="1024" />

    
    <glyph glyph-name="QQ1" unicode="&#58881;" d="M76.383 307.906C39.461 221.285 33.46 138.65 63.105 123.213c20.443-10.632 52.495 13.589 82.493 58.038 11.878-48.437 41.269-92.295 83.255-127.473-44.032-16.201-72.802-42.658-72.802-72.657 0-49.311 77.843-89.183 173.91-89.183 86.657 0 158.416 32.403 171.662 74.998 3.558 0.052 17.245 0.052 20.692 0 13.299-42.543 85.121-74.998 171.72-74.998 96.072 0 173.903 39.93 173.903 89.183 0 29.945-28.74 56.456-72.802 72.657 41.93 35.23 71.436 79.036 83.261 127.473 29.999-44.449 61.961-68.67 82.438-58.038 29.661 15.438 23.804 98.13-13.246 184.693-29.019 68.074-68.375 118.202-98.482 129.275 0.44 4.311 0.66 8.727 0.66 13.09 0 26.29-7.33 50.621-19.87 70.421 0.222 1.529 0.222 3.111 0.222 4.635 0 12.111-2.904 23.45-7.841 33.272-7.602 176.953-123.214 317.463-310.284 317.463-187.172 0-302.842-140.51-310.375-317.462-4.972-9.874-7.846-21.213-7.846-33.272 0-1.523 0.104-3.105 0.163-4.635-12.424-19.8-19.766-44.073-19.766-70.421 0-4.363 0.168-8.727 0.551-13.09-29.885-11.074-69.383-61.253-98.338-129.276z m0 0"  horiz-adv-x="1024" />

    
    <glyph glyph-name="weibiaoti" unicode="&#58883;" d="M772.654545-4.654544999999985l-13.963636 4.654545C165.236364 181.52727300000004 128 630.6909089999999 125.672727 635.345455V663.272727l155.927273 116.363637 160.581818-209.454546-81.454545-90.763636c27.927273-95.418182 174.545455-200.145455 242.036363-242.036364l109.381819 74.472727 190.836363-169.890909-130.327273-146.618181zM172.218182 637.672727c2.327273-25.6 44.218182-416.581818 586.472727-588.8l83.781818 88.436364-128 114.036364-104.727272-69.818182-11.636364 6.981818c-9.309091 6.981818-249.018182 146.618182-279.272727 290.909091l-2.327273 11.636363 72.145454 79.127273L279.272727 712.145455l-107.054545-74.472728z"  horiz-adv-x="1024" />

    
    <glyph glyph-name="xinxi" unicode="&#59370;" d="M324 434m-51.2 0a51.2 51.2 0 1 1 102.4 0 51.2 51.2 0 1 1-102.4 0ZM819.3 741.5H204.7C148 741.5 102 695.4 102 638.7v-409.6c0-56.6 46-102.7 102.7-102.7h105.1l31.5-75.4c4.5-10.6 13.3-18.9 24.3-22.5 4.1-1.4 8.2-2 12.4-2 7.1 0 14.3 1.9 20.4 5.7l157.2 94.2h263.7c56.7 0 102.7 46.1 102.7 102.7V638.7c0 56.7-46.1 102.8-102.7 102.8z m34.3-512.3c0-18.9-15.4-34.4-34.4-34.4H536.7l-145-87-36.3 87H204.7c-18.9 0-34.4 15.4-34.4 34.4V638.7c0 18.9 15.4 34.4 34.4 34.4h614.5c18.9 0 34.4-15.4 34.4-34.4v-409.5zM512 434m-51.2 0a51.2 51.2 0 1 1 102.4 0 51.2 51.2 0 1 1-102.4 0ZM699.9 434m-51.2 0a51.2 51.2 0 1 1 102.4 0 51.2 51.2 0 1 1-102.4 0Z"  horiz-adv-x="1024" />

    
    <glyph glyph-name="gongjubao" unicode="&#58957;" d="M864.711 634.3109999999999H705.423v68.267c0 37.706-30.561 68.266-68.267 68.266H364.089c-37.706 0-68.267-30.56-68.267-68.266v-68.267H159.29c-37.706 0-68.267-30.56-68.267-68.267v-500.622c0-37.706 30.56-68.266 68.267-68.266H864.71c37.706 0 68.267 30.56 68.267 68.266V566.044c0 37.706-30.56 68.267-68.267 68.267z m-523.378 45.511c0 25.122 20.39 45.511 45.511 45.511H614.4c25.122 0 45.511-20.389 45.511-45.51v-45.512H341.333v45.511z m546.134-591.644c0-25.122-20.39-45.511-45.511-45.511H182.044c-25.122 0-45.51 20.389-45.51 45.51V315.73400000000004h341.333v-11.377c0-18.865 15.291-34.134 34.133-34.134s34.133 15.27 34.133 34.134v11.377h341.334v-227.555z m0 273.066H546.133v56.89c0 18.84-15.291 34.133-34.133 34.133s-34.133-15.292-34.133-34.134v-56.889H136.533V543.29c0 25.122 20.39 45.511 45.511 45.511H841.956c25.122 0 45.51-20.389 45.51-45.511v-182.045z"  horiz-adv-x="1024" />

    


  </font>
</defs>
</svg>
